<svg id="Layer_1" data-name="Layer 1" xmlns="http://www.w3.org/2000/svg" viewBox="0 0 499.8 545.84"><defs><style>.cls-1{fill:#564333;fill-rule:evenodd;}</style></defs><title>img_emblem</title><path id="img_emblem" data-name="img emblem" class="cls-1" d="M238.78,454.94l-.58-7.75S198.4,434.66,165,424.37c-19.15-5.9-43.31-26.4-47.11-31.72-14.41-20.12-15.74-52.35-15.74-52.35l0-139.42s.53-13.34,1.63-23A72.63,72.63,0,0,1,106.29,165,80,80,0,0,0,93,173.57a124.94,124.94,0,0,0-13.7,13.52s5.82,3,6.86,7.71c2.3,10.38,2.26,25.55,2.26,25.55l1.21,130S95.53,378,109,399.21c19.73,31.1,88.07,44.81,88.07,44.81s26.54,5.74,39.83,14.5c1.4.92,3,4.58,3,4.58s-3.58-3.66-10-2.11c-8,1.93-15.6,11.14-15.6,11.14l-.1-15.63L198.73,455a25.13,25.13,0,0,0,2.39,5.25c1.73,2.9,5.33,5,7.15,8a24.05,24.05,0,0,1,2.69,7.24s-6.27-5.7-11.73-11.23a37.17,37.17,0,0,1-6.77-10s-6.48-.72-9.79-1.12-12.22-1.84-12.22-1.84a54.34,54.34,0,0,0,8.21,7.54c6.83,5.2,12.8,7.39,18.68,11.33a82.15,82.15,0,0,1,11,8.9s-16-7-27.71-14.27c-13.3-8.23-15.51-14.4-15.51-14.4l-20.12-4.55a100.59,100.59,0,0,0,16.26,15.69c4.21,3.14,25.51,13,41.88,23.37a112.12,112.12,0,0,1,21.21,17.52s-6.33-19.84-1-29.11c4.46-7.71,8.84-8,12.84-7.25s4.9,3.21,4.9,3.21l.18,7.45,5.64,1.49.24-15.85Zm175-281.36a51.57,51.57,0,0,0-13.95-7.75s2.17,3.88,3.1,12c1.1,9.66,1.63,23,1.63,23l0,139.42s-1.33,32.23-15.74,52.35c-3.81,5.32-28,25.82-47.11,31.72-33.39,10.29-72.12,22.82-72.12,22.82l-.58,7.75-8.45,7.5.24,15.85,5.64-1.49.18-7.44s.9-2.48,4.9-3.21,8.38-.47,12.84,7.24c5.36,9.27-1,29.12-1,29.12A112.23,112.23,0,0,1,304.63,485c16.36-10.34,37.66-20.22,41.87-23.37l24.8-18.54-28.66,7.4s-2.2,6.16-15.5,14.4c-11.73,7.26-27.72,14.27-27.72,14.27a83,83,0,0,1,11.06-8.9c5.87-3.93,11.84-6.13,18.68-11.33a55.32,55.32,0,0,0,8.21-7.54s-8.82,1.44-12.23,1.84-9.79,1.12-9.79,1.12a36.92,36.92,0,0,1-6.77,10c-5.46,5.53-11.73,11.22-11.73,11.22a24.7,24.7,0,0,1,2.69-7.24c1.83-3.06,5.43-5.15,7.16-8a25.82,25.82,0,0,0,2.39-5.24l-15.54,1.52-.1,15.62s-7.63-9.21-15.6-11.14c-6.39-1.54-10,2.11-10,2.11s1.64-3.66,3-4.58c13.29-8.77,39.83-14.5,39.83-14.5s67.27-13.7,87-44.81c13.46-21.22,19.38-48.8,19.38-48.8l1.21-130s0-15.18,2.27-25.55c1-4.66,6.22-6.65,6.22-6.65A78.43,78.43,0,0,0,413.77,173.58ZM247.23,454.5l-6.85-6.15.36,5.88,6.58,6Zm13.35,0-.09,5.78,6.58-6,.36-5.88Zm-111.17,14,6.5-4.4-14.72-19.6-25.52-8.62s1.61,13.51,2.18,14.29c.13.18,19,4.55,19,4.55L135,450l-14.29-4-.65-4.06,18,4.21,3.63,12.63L114,451.83l-2.13-17.54s-13.1-9-21.28-19.62a69,69,0,0,1-11-22.44l10.95-.29L77.08,378l0-8.93s14.48-2.2,14.42-2.38-13.84-7.43-29.08-16.89c-18.85-11.71-39.9-26.07-39.9-26.07s-11.14,14.88-11,15.14c.24.49,41.81,30.12,43.21,30.22.2,0,3.82,16.86,3.82,16.86L46.56,368,31.9,368l-7.3-12L0,362.77l20.71,2.07,7.07,11,14.87-.26,10.53,12.59L20.77,376.7l-5.33,12.44s19.64,0,42.32,16.59,20.56,32.84,41.11,44a119.19,119.19,0,0,0,39.81,13.29l-6.35,3.48a142.26,142.26,0,0,1-16.85-3.48c-9-2.52-18.35-6.3-18.35-6.3l0,20.9,13.5,3.62-.3-5.61-5.51-1.13.26-6,13.56,2.94-.09,11.27,8.48.08.35-9.95,31,3.16.42,4.75-8.47.12.21,4.77,18.43,1.46,3-17.29ZM87.23,405.77l7.34,9.34,4.8-8.81Zm14.68,17,10.41,8,.53-9.61Zm358.4-59.85c7.72-6.47,17.31-13.7,25.47-17a27.07,27.07,0,0,1,14-1.61s-5.77-12.43-26.21-11.64c-15.9.61-21.43,14-33.88,23.24a200.79,200.79,0,0,1-25.1,15.95l16.95,1.31-16.48,19.26,9.35-.77S422.49,409,414,418.94c-16.59,19.35-34.76,22.56-34.76,22.56l21.09-.21a49.54,49.54,0,0,1-14.75,10.35,145.88,145.88,0,0,1-17.42,6.28L379,445.55l4.11,1.06-6.28,5.88,15.94-8.72-19.65-.11a49.31,49.31,0,0,1-9.55,9.43,152.47,152.47,0,0,1-13.93,9.28l6.63,5.73-23.07,3.33,29.06,14.63-11-10.45,27.51-2.9L379,485.6s4.18-4.57,7-8.5a31.81,31.81,0,0,0,3.5-6.06l6.36-1.73a24.33,24.33,0,0,1-1.78,7.12,72,72,0,0,1-5.24,9.65s9.6-4.86,14.09-11.89c4.71-7.36,4.32-16.9,4.32-16.9s-13.17,6.32-22.75,8.3a30,30,0,0,1-20.27-3.07s23-2.21,40.61-11.16c20.88-10.6,21.71-30.85,44.31-47.52,21.68-16,39.94-15.54,39.94-15.54s.57-7-18.15-7.8c-20.52-.91-22.66,9.05-26.93,10.39C441.86,391.56,446.13,374.77,460.31,362.87Zm-55.08,47.7,4.8,8.81,7.34-9.34Zm-13.48,14.82.54,9.61,10.41-8Zm92.77-64.47c-9.82,0-10.2,3.53-16.87,6.95-4.15,2.13-9.15,3.48-12.43,6.15a25.52,25.52,0,0,0-7.48,9.56s3.89-4.32,11.67-6.61c3.87-1.14,9.2-1.43,13.94-3.16,5.15-1.88,8.36-5.64,13.92-5.87a36.06,36.06,0,0,1,11.87,1.3s-4.84-8.34-14.61-8.32ZM368.23,134.38l3.55-13.63,46.53-23.38-9.9-8.57L373.36,106l-1.6-12.9,23.51-12.25s-13.73-4.88-13.8-5.07S362.72,87,346.37,90.07c-27.31,5.05-59.57,3.68-59.73,4-.4.7,10,17.41,11.4,17.5.21,0,18.11-8.44,18.11-8.44L313,110.23l11.78-6-4.56,6.19,14.48-7.56,7.2,2-11.29,10-4.77-2.35-.83,4.94-7.87-1.7-.24,3.65-8.27-2.5-.27,5-7.69-3.28,6.57,8.49,36.63-7.15s-.45,13.33-9.78,23.58C322.12,156.67,295.2,162,295.2,162l33.56,21.15s13.55-17.08,33-29.39c18-11.43,37.82-21.19,50.26-31.27,8.74-7.07,9.76-14.64,9.76-14.64Zm-305,43.77-.13,0S63.12,178.39,63.2,178.15Zm193.06,47.73-14.45-55.63-37.38-10s-20.88-3.59-32.84-16.74c-9.32-10.25-9.78-23.58-9.78-23.58l36.63,7.15L205,118.6l-7.68,3.28-.28-5-8.27,2.5-.24-3.64-7.86,1.7-.84-4.94-4.76,2.34-11.3-10,7.2-2,14.48,7.56-4.56-6.19,11.78,6-3.16-7.13s17.9,8.46,18.11,8.44c1.4-.09,11.8-16.8,11.4-17.5-.16-.28-32.42,1.08-59.73-4-16.35-3-35-14.54-35.1-14.24s-13.8,5.06-13.8,5.06l23.51,12.25-1.6,12.9-35-17.24-9.9,8.57,46.53,23.38,3.55,13.63L83.92,107.85s1,7.56,9.77,14.64c12.44,10.08,32.23,19.84,50.26,31.26,19.42,12.31,33.23,31.54,33.23,31.54l-27.91,19.27-23.76-15.37s-1-12,5.14-15c4.85-2.38,15.39-.44,15.39-.44s13.05,6.5,13.32,11.31-4.24,10.15-10.91,7.48c-2.85-1.14-4-5.21-2.4-7.48s10.14,1.46,10.14,1.46-1.83-5.18-7-5.85-11.35,5.39-10.82,9.4c.65,4.88,12.93,10.24,12.93,10.24l20.1-13.88L162.32,175a268.51,268.51,0,0,0-26.86-18.95c-16.15-11-45.25-23.19-49.25-22.65s-9.57,11.1-9.57,11.1a95.06,95.06,0,0,1,13.65,4.56c5.43,2.4,7.61,4.8,7.61,4.8l-6,4.92-18.5-6.38-4.62,7.94,14.78,5.6-5.76,6.18-13.31-1s-.82,4.63-1.2,6.74a2,2,0,0,1,0,.24l9,1.34-3,6.53-9.32-.39,5.22,85.46,24.31,17.8,0-6.62L72.32,269.78l17.18-14.2V248.1L68.05,266.22s2.68-73.5,9.87-83.75c4.75-6.78,19.68-20.85,32.67-22.16,20.13-2,31.58,7.47,31.58,7.47s-14.4-4.9-22.14-1.43-6.9,10.69-6.9,10.69L113,332.54s0,45.15,24,63.52c13.48,10.28,31.05,17,48,23.65,18.26,7.12,40.26,16,53.69,23.47,6.23,3.46,11.37,12.31,11.37,12.31l6.26.7ZM89.63,343l-11.07-8.81,11.07-8v-7.34L68,335,90.16,350.9Zm20,55L95.5,395.75l5.34-12.55-2.93-9.34L86.83,399.49l29.09,5.74Zm128-223.48L232,173.47,209.61,191l8.54,8.54,19.88-20Zm-55.39,31.51s-2-13.49-3.19-13.49-2.54,13.89-2.54,13.89-14,2.27-14,3.47,14,3.2,14,3.2,1.73,14.42,3.47,14.42,3.07-15.09,3.07-15.09,12.14-2.67,12.14-3.74-12.95-2.66-12.95-2.66ZM144.88,250.9s-2-13.48-3.2-13.48-2.54,13.88-2.54,13.88-14,2.27-14,3.47,14,3.21,14,3.21,1.74,14.41,3.47,14.41,3.07-15.08,3.07-15.08,12.15-2.67,12.15-3.74S144.88,250.9,144.88,250.9Zm81.14-16s-2-13.48-3.2-13.48-2.54,13.88-2.54,13.88-14,2.27-14,3.47,14,3.2,14,3.2,1.74,14.42,3.47,14.42,3.06-15.08,3.06-15.08S239,238.62,239,237.55s-13-2.67-13-2.67Zm23.08,36.45-16,19.76,17.61,42.85ZM230.69,294l-12.42,15.75,29.9,25.9Zm-14.15,18.16-13.08,17.62,42.7,7.87Zm-14.81,20.15L189.58,348.5s13.41-3.31,26.69-5.23c14.43-2.08,28.83-2.78,28.83-2.78Zm-14.07,21a273,273,0,0,0-55.19,20.52,37.8,37.8,0,0,0,4.05,6.18,32.25,32.25,0,0,0,4.76,4.51,308.28,308.28,0,0,1,51.41-17.72c27.65-6.62,57.88-7.38,57.88-7.38V345.16s-33.79,1.1-62.91,8.18Zm62.78,87.54V404a195.37,195.37,0,0,0-26.72,3.49,139,139,0,0,0-23.46,7.59s16.1,7.67,28.53,14.8a151.79,151.79,0,0,1,14.84,9.76,94.64,94.64,0,0,0-8.29-13.26,136,136,0,0,0-11.86-13.3l14.14-3.2Zm-26-74.48c-9.4.74-20.86,3.27-27.89,4.93-35.2,8.34-50.56,17.61-50.56,17.61l17.35,9.88L170,379.6l16,11.08-14.68,4.54,1.87-6.81,1.07,3.2,5.07-1.73L171.57,384l-5.07,16,21.88-7.61,7.74-19.76,17.48,9.88-16.68,4.28,3.87-6.81,0,4.06,6.66-1.39-9.34-5.47-5.6,14,24-5.48,9.34-18.82L241,380.13l-16,1.74,4.27-6.28-.54,4,7.74-.4-9.61-7.87-6.14,13.62s5.86-.79,12.4-1.23c8.27-.55,17.23-.77,17.23-.77V365.05S238.87,365.27,224.4,366.4Zm-11.22,23.34C192.25,394,170,402.16,170,402.16l6.67,2.67,2.4-4.14,15.35,7.75-3.2,2.93,2.4,1.34,9.2-20.29,15.08,10.28L204.13,407l2.8-7.48.93,3.87,5.2-2-9.07-5.6-6.41,15.88,21.09-6.14,11.74-17.62,13.75,10.68-15.88,2.94,4.67-6.94-.27,4.4,6.41-1.47-8-6L224,404.17l26.29-3.47V385.88a209.36,209.36,0,0,0-37.12,3.86ZM180.51,404.3l-.8,1.6,8.14,3.47,1.74-.93ZM141.88,279.07v9.28l4.33.06.14-9Zm.13,14.82-.07,8.41h4.94l.07-8.41Zm5,14-4.27-.07-.2,8.88,4.6-.14Zm.07,15.35-4.34.2.07,7.08,4.4-.07Zm.87,12.95-5,.07.2,7.94,4.93-.4Zm-4.8,13.08-.07,7.88s4.74-.87,4.74-1.34v-6.6Zm42.9-11.55h-4.81v9.15c0,.27,4.88-1.8,4.88-1.8Zm.26-17.15-4.8-.07-.4,8.88,5.14.07c.27,0,.06-8.88.06-8.88Zm-.73-16.49-4.67-.27-.07,9.22,5.2-.47Zm-.2-16.42-4.94.47-.13,8.41s4.67.8,4.93.2.14-9.08.14-9.08Zm-5.47-14.88-.26,8.28,4.87.2.06-8.68Zm4.4-15.89-5.4.54.47,8.21,5.13-.4Zm-5.6-12.28.2,8,5.07.07.07-8.68Zm4.74-13-4.74-.6.14,6.68,5,.53Zm42.1,29.7s-3.87-1-4,0,.47,8.08.47,8.08l4.2-.33Zm2.14,14.55-5.2.47v7.81H228Zm214.92-97.74-.13,0c.08.25.12,0,.12,0Zm-6.08,7.9-3-6.53,9-1.34a2,2,0,0,1-.05-.24c-.38-2.1-1.2-6.74-1.2-6.74l-13.31,1-5.77-6.18,14.78-5.6-4.62-7.94-18.5,6.38-6-4.92s2.17-2.4,7.6-4.8A96.44,96.44,0,0,1,429,144.5s-5.57-10.57-9.57-11.1-33.11,11.7-49.26,22.65A271.81,271.81,0,0,0,343.35,175l-9,11.46,20.1,13.88s12.28-5.36,12.93-10.24c.53-4-5.61-10.07-10.82-9.4s-7,5.85-7,5.85,8.54-3.73,10.14-1.47.45,6.35-2.4,7.49c-6.67,2.67-11.18-2.67-10.91-7.48s13.32-11.31,13.32-11.31,10.54-1.94,15.39.44c6.1,3,5.14,15,5.14,15V336.46s-1.33,33.06-16.23,46.47c-17.05,15.34-40.36,22.7-58.32,31.63-23.72,11.81-38.51,20.59-38.51,20.59l17.1-22.68L270,410.08,256,442l.1-222.92,14.2-40,16.23,20.33L296,192.8l-15.79-18,28.78-9.5-6-4.87L275.77,150l16.49-15L286.2,128l-16,16-14.38-33-8.27,3.91-11.51,28.56L219.17,128l-6.83,7,17,14.77-26.46,10.83,8.29,1.37,28.76-9.89,13.17-36,12.7,35.86,30,10.3-31.93,8-12.57,47.62.76,237.69-2.42-1.06.13,27.51L242,480.73l7.88,9.87a10.8,10.8,0,0,1-4.26,5.76c-6.41,4.36-17.37,11.38-17.37,11.38s4.65,7.68,9.23,12.26a15.85,15.85,0,0,0,7.36,4.34s-5-7.06-5.35-10.12c-.49-4.11,5.32-6.77,5.32-6.77L253,545.82l8.76-38.2s5.72,2.44,5,6.6c-.54,3-5,10-5,10a22.36,22.36,0,0,0,8.22-5.31c4.26-4.23,8.45-11.24,8.45-11.24s-10.22-6.18-16.55-11a15,15,0,0,1-4.43-5.9l8.32-10.25-7.69,1.28,0-25.88s1.09-5.26,9.57-11.51c10.7-7.89,30.56-17,53-24.71,17.19-5.88,34.5-13.36,48-23.65,24.07-18.36,24-63.51,24-63.51L392.54,177s.89-7.2-6.89-10.7-22.14,1.44-22.14,1.44,11.44-9.5,31.57-7.47c13,1.31,27.93,15.38,32.68,22.15,7.19,10.25,9.87,83.75,9.87,83.75l-20.2-17.16,0,7.7,16,13-17.07,12.49,0,6.62,24.32-17.8,5.21-85.46ZM416,318.86v7.34l11.08,8L416,343l-.53,7.88L437.66,335ZM408.57,376l-3.74,7.2,5.34,12.55L396,398l-6.28,7.21,29.1-5.74ZM190.13,113.05h.18C190,113,189.92,113,190.13,113.05ZM315,32.8c-17.92-7.34-39.45,16.7-39.45,16.7s-4.73-18.68,4.61-29.57C295.47,2.06,312.3,5.54,312.3,5.54s-7.95-8.49-26.88-4.48c-15.94,3.37-27.6,18.14-26.52,31.49,1.85,23,18,52.75,9.46,64.37-10.8,14.67-33,20.7-48.45,20.39-6.9-.13-8.27-3.51-13.78-4.21a77.45,77.45,0,0,0-15.82-.06c1.63.13,9.64,1.19,15.76,4.14,8,3.88,3.06,3.7,6.34,4.26,17.7,3,43.75-.74,61-14.78a42.13,42.13,0,0,0,8.79-14c3.6-9.28,2.26-21.82,13.22-20.93,13.6,1.11,10,18.38,10,18.38A23.55,23.55,0,0,0,311,67.4c-3.18-11.47-19.54-8.13-19.54-8.13s1.2-13.1,14.11-17.75c11.88-4.28,12.84,9.34,12.84,9.34S326,37.32,315,32.8ZM237.32,96.92c-8.31-11.8,7.6-41.39,9.46-64.37,1.08-13.35-10.59-28.12-26.53-31.49-18.93-4-26.87,4.48-26.87,4.48s16.83-3.48,32.16,14.4c9.34,10.89,4.61,29.56,4.61,29.56s-21.52-24-39.44-16.7c-11.05,4.52-3.43,18.06-3.43,18.06s1-13.61,12.85-9.34c12.91,4.65,14.11,17.75,14.11,17.75s-16.36-3.34-19.54,8.13a23.52,23.52,0,0,0,5.5,22.67s-3.57-17.27,10-18.37c11-.9,9.61,11.64,13.21,20.92,3.08,7.9,5.75,11.14,8.8,14.5s5.51,3.5,5.51,3.5l11.19-3.06A38.25,38.25,0,0,1,237.32,96.92Zm62.23,16.18c-5.51.69-6.89,4.08-13.78,4.21-5.31.1-16.37-2.63-16.37-2.63l-9.13,4.68s22.93,3.77,33,2.08c3.29-.55-1.68-.39,6.34-4.26,6.12-3,14.14-4,15.76-4.15A78.8,78.8,0,0,0,299.55,113.1Zm15.81-.07.18,0C315.75,113,315.67,113,315.36,113Zm-8.73,123.54a51.37,51.37,0,0,1,.65-15.6,147.15,147.15,0,0,1-20.88-6.08A168.81,168.81,0,0,1,265.65,205l1.28,12.81s9.34,3.15,18.16,5.5c7.89,2.12,15.36,3.47,15.36,3.47v5.56a121.46,121.46,0,0,1-14.91-2.51,164.77,164.77,0,0,1-16.26-5l1.5,8.33s7.15,2.05,14.29,3.5c7.58,1.54,15.17,2.49,15.17,2.49l.64,4.7-28.61-2.35,3.63,7.26,20.71,1.92s-12.3,3.26-20.39,10.16C267.57,268.22,264,279.5,264,279.5l12.17,3.41s2.84-12.7,10.69-19.66c9.68-8.57,24.54-11.31,24.54-11.31A61.76,61.76,0,0,1,306.63,236.57Zm48.59,24.26c-8.09-6.9-20.39-10.16-20.39-10.16l20.71-1.93,3.63-7.26-28.61,2.35.64-4.7s7.6-.94,15.17-2.48c7.14-1.45,14.29-3.5,14.29-3.5l1.5-8.33a168.54,168.54,0,0,1-16.27,5,121.11,121.11,0,0,1-14.91,2.5v-5.55s7.47-1.36,15.36-3.47c8.82-2.36,18.17-5.5,18.17-5.5L365.79,205A170.22,170.22,0,0,1,345,214.89,147.66,147.66,0,0,1,324.15,221a51.37,51.37,0,0,1,.66,15.6A61.81,61.81,0,0,1,320.1,252s14.86,2.73,24.54,11.31c7.85,6.95,10.69,19.66,10.69,19.66l12.17-3.42s-3.63-11.28-12.28-18.67ZM306.63,361.72a61.81,61.81,0,0,1,4.71-15.38S296.48,343.61,286.8,335c-7.85-6.95-10.69-19.66-10.69-19.66l-12.17,3.42s3.62,11.28,12.28,18.67c8.08,6.9,20.39,10.16,20.39,10.16l-20.71,1.92-3.63,7.27,28.61-2.35-.64,4.7s-7.6.94-15.18,2.48c-7.14,1.45-14.29,3.5-14.29,3.5l-1.5,8.33a168.54,168.54,0,0,1,16.27-5,121.11,121.11,0,0,1,14.91-2.5v5.55S293,372.91,285.09,375c-8.82,2.36-18.17,5.5-18.17,5.5l-1.28,12.81a171.64,171.64,0,0,1,20.75-9.93,147.66,147.66,0,0,1,20.89-6.08A51.37,51.37,0,0,1,306.63,361.72ZM346.34,375c-7.89-2.11-15.36-3.47-15.36-3.47V366a119.28,119.28,0,0,1,14.91,2.51,163.1,163.1,0,0,1,16.27,5l-1.5-8.34s-7.15-2-14.29-3.5c-7.58-1.53-15.17-2.48-15.17-2.48l-.64-4.7,28.61,2.35-3.63-7.26-20.71-1.92s12.3-3.26,20.39-10.17c8.65-7.39,12.27-18.67,12.27-18.67l-12.17-3.42s-2.84,12.71-10.69,19.66c-9.67,8.58-24.54,11.31-24.54,11.31a61.41,61.41,0,0,1,4.72,15.38,51.36,51.36,0,0,1-.65,15.6A148.48,148.48,0,0,1,345,383.4a168.81,168.81,0,0,1,20.75,9.94l-1.28-12.81s-9.35-3.15-18.17-5.51ZM139.49,373.3l9.8,4.46,1.92-9.64Zm17.8-7.58,9.87,6,2.67-10.42ZM176.1,359l8.81,6.14,4-9.61Zm19.49-4.27,8.67,6.81,4.67-9.61Zm20.95-4.14,7.74,7.48L230,349ZM236.15,348l7.34,8.55L250,347.7ZM345,270.08a28.75,28.75,0,0,1-6.73,1.44c-3.39.19-7.26.17-7.26.17a14.43,14.43,0,0,1-2,8.32c-2.57,4.65-14.25,18.1-14.25,18.1s-1,3-.52,3.6,2.28-1.36,2.28-1.36,12.94-11.41,17.93-14.09a15.74,15.74,0,0,1,9.13-2.08s0-4.33.16-7.21a43.54,43.54,0,0,1,1.28-6.89ZM302,280a14.36,14.36,0,0,1-2-8.32s-3.88,0-7.27-.17a28.57,28.57,0,0,1-6.72-1.44,43.54,43.54,0,0,1,1.28,6.89c.17,2.88.16,7.21.16,7.21a15.78,15.78,0,0,1,9.13,2.08c5,2.68,17.93,14.09,17.93,14.09l1.76-2.24S304.56,284.65,302,280Zm14.25,21.4-1.77-2.24s-12.94,11.42-17.93,14.1a15.73,15.73,0,0,1-9.12,2.08s0,4.33-.16,7.21a44.58,44.58,0,0,1-1.28,6.88,29.08,29.08,0,0,1,6.72-1.44c3.39-.19,7.27-.17,7.27-.17a14.4,14.4,0,0,1,2-8.32c2.56-4.65,14.25-18.1,14.25-18.1Zm27.48,21.14c-.17-2.87-.16-7.2-.16-7.2a15.74,15.74,0,0,1-9.12-2.09c-5-2.67-17.93-14.1-17.93-14.1l-1.76,2.25s11.68,13.45,14.25,18.1a14.42,14.42,0,0,1,2,8.31s3.87,0,7.26.17a28.77,28.77,0,0,1,6.73,1.45,43.75,43.75,0,0,1-1.28-6.89Zm-28-66L301.9,270.47l13.88,13.88,13.88-13.88Zm0,59.68L301.9,330.16,315.78,344l13.88-13.88Zm29.27-29.84-13.88,13.88,13.88,13.89,13.88-13.89Zm-59.65,0-13.88,13.88L285.4,314.2l13.88-13.89Z" transform="translate(0 0.02)"/></svg>